<?xml version="1.0" encoding="utf-8"?>
<!-- Generator: Adobe Illustrator 23.0.1, SVG Export Plug-In . SVG Version: 6.00 Build 0)  -->
<svg version="1.1" id="Layer_1" xmlns="http://www.w3.org/2000/svg" xmlns:xlink="http://www.w3.org/1999/xlink" x="0px" y="0px"
	 viewBox="0 0 128 128" style="enable-background:new 0 0 128 128;" xml:space="preserve">
<style type="text/css">
	.st0{fill:#3376B8;}
	.st1{fill:#FFFFFF;}
</style>
<g>
	<path id="path10349" class="st0" d="M116.8,28.5c-0.7-2.4-2.5-4.4-4.7-5.6L67.5,0.8C66.3,0.2,65,0,63.8,0s-2.5,0-3.7,0.3L15.5,22.6
		c-2.2,1.1-3.8,3-4.4,5.6L0.1,78c-0.4,2.6,0.1,5.1,1.6,7.3l30.9,39.5c1.8,1.8,4.2,3,6.7,3.2h49.2c2.6,0.3,5.1-0.9,6.7-3.2l30.9-39.5
		c1.5-2.1,2-4.7,1.8-7.3L116.8,28.5L116.8,28.5z"/>
	<path id="path10351" class="st1" d="M109.9,76L109.9,76c-0.1,0-0.3,0-0.3-0.2c0-0.2-0.3-0.2-0.6-0.2c-0.6-0.2-1.2-0.2-1.8-0.2
		c-0.3,0-0.6,0-0.9-0.2h-0.1c-1.6-0.2-3.4-0.5-5-0.9c-0.4-0.2-0.9-0.6-1-1.1c0.1,0,0,0,0,0l0,0l-1.2-0.3c0.6-4.4,0.3-8.9-0.6-13.3
		c-1-4.4-2.8-8.6-5.1-12.4l0.9-0.9l0,0v-0.2c0-0.5,0.1-1.1,0.4-1.4c1.3-1.2,2.6-2.1,4.1-3l0,0c0.3-0.2,0.6-0.3,0.9-0.5
		c0.6-0.3,1-0.6,1.6-0.9c0.1-0.2,0.3-0.2,0.4-0.3c0.1-0.2,0-0.2,0-0.3l0,0c1.3-1.1,1.6-2.9,0.6-4.2c-0.4-0.6-1.3-1.1-2-1.1
		c-0.7,0-1.5,0.3-2,0.8l0,0l-0.1,0.2c-0.1,0.2-0.3,0.3-0.4,0.3c-0.4,0.5-0.9,0.9-1.2,1.4c-0.1,0.3-0.4,0.5-0.6,0.6l0,0
		c-1,1.2-2.3,2.4-3.7,3.3c-0.3,0.2-0.6,0.3-0.9,0.3c-0.1,0-0.4,0-0.6-0.2h-0.1l-1.2,0.8c-1.2-1.2-2.5-2.4-3.7-3.6
		c-5.4-4.4-12.1-7.1-19-7.9l-0.1-1.2l0,0v0.2c-0.4-0.3-0.6-0.8-0.7-1.2c0-1.7,0-3.3,0.3-5.1V23c0-0.3,0.1-0.6,0.1-0.9
		c0.1-0.6,0.1-1.2,0.3-1.8v-0.9l0,0c0.1-1.5-1-3-2.5-3.2c-0.9-0.2-1.8,0.3-2.5,1.1c-0.6,0.6-0.9,1.4-0.9,2.1l0,0v0.8
		c0,0.6,0.1,1.2,0.3,1.8c0.1,0.3,0.1,0.6,0.1,0.9V23c0.3,1.7,0.3,3.3,0.3,5.1c-0.1,0.5-0.3,0.9-0.7,1.2v0.3l0,0l-0.1,1.2
		c-1.6,0.2-3.2,0.5-5,0.8c-6.9,1.5-13.2,5.3-18,10.6l-0.9-0.6h-0.1c-0.1,0-0.3,0.2-0.6,0.2c-0.3,0-0.6-0.2-0.9-0.3
		c-1.3-1.1-2.6-2.3-3.7-3.5l0,0c-0.1-0.3-0.4-0.5-0.6-0.6c-0.4-0.5-0.7-0.9-1.2-1.4c-0.1-0.2-0.3-0.2-0.4-0.3
		c-0.1-0.2-0.1-0.2-0.1-0.2l0,0c-0.6-0.5-1.3-0.8-2-0.8c-0.9,0-1.6,0.3-2,1.1c-0.9,1.4-0.6,3.2,0.6,4.2l0,0c0.1,0,0.1,0.2,0.1,0.2
		s0.3,0.3,0.4,0.3c0.4,0.3,1,0.6,1.6,0.9c0.3,0.2,0.6,0.3,0.9,0.5l0,0c1.5,0.9,2.9,1.8,4.1,3c0.3,0.3,0.6,0.9,0.4,1.4v-0.2l0,0
		l0.9,0.9c-0.1,0.3-0.3,0.5-0.4,0.8c-4.5,7.4-6.4,16.2-5.1,24.8L27.4,73l0,0c0,0.2-0.1,0.2-0.1,0.2c-0.1,0.5-0.6,0.8-1,1.1
		c-1.6,0.5-3.2,0.8-5,0.9l0,0c-0.3,0-0.6,0-0.9,0.2c-0.6,0-1.2,0.2-1.8,0.2c-0.1,0-0.3,0.2-0.6,0.2c-0.1,0-0.1,0-0.3,0.2l0,0
		c-1.6,0.3-2.6,1.8-2.3,3.5l0,0c0.3,1.4,1.6,2.3,2.9,2.1c0.3,0,0.4,0,0.7-0.2l0,0c0.1,0,0.1,0,0.1-0.2c0-0.2,0.4,0,0.6,0
		c0.6-0.2,1.2-0.5,1.6-0.6c0.3-0.2,0.6-0.3,0.9-0.3h0.1c1.6-0.6,3.1-1.1,4.8-1.4h0.1c0.4,0,0.9,0.2,1.2,0.5c0.1,0,0.1,0.2,0.1,0.2
		l0,0l1.3-0.2c2.2,7,6.3,13.2,12,17.7c1.3,1.1,2.5,2,4,2.7l-0.7,1.1l0,0c0,0.2,0.1,0.2,0.1,0.2c0.3,0.5,0.3,1.1,0.1,1.5
		c-0.6,1.5-1.5,3-2.3,4.4v0.2c-0.1,0.3-0.3,0.5-0.6,0.8c-0.3,0.3-0.6,0.9-1,1.5c-0.1,0.2-0.1,0.3-0.3,0.5c0,0,0,0.2-0.1,0.2l0,0
		c-0.7,1.5-0.1,3.3,1.2,4.1c0.3,0.2,0.7,0.3,1,0.3c1.2,0,2.2-0.8,2.8-1.8l0,0c0,0,0-0.2,0.1-0.2c0-0.2,0.1-0.3,0.3-0.5
		c0.1-0.6,0.4-1.1,0.6-1.7l0.3-0.9l0,0c0.4-1.7,1.2-3.2,1.9-4.7c0.3-0.5,0.7-0.8,1.2-0.9c0.1,0,0.1,0,0.1-0.2l0,0l0.6-1.2
		c4.1,1.7,8.3,2.4,12.7,2.4c2.6,0,5.3-0.3,7.9-1.1c1.6-0.3,3.2-0.9,4.7-1.4l0.6,1.1l0,0c0.1,0,0.1,0,0.1,0.2
		c0.4,0.2,0.9,0.5,1.2,0.9c0.7,1.5,1.5,3,1.9,4.7v0.2l0.3,0.9c0.1,0.6,0.3,1.2,0.6,1.7c0.1,0.2,0.1,0.3,0.3,0.5c0,0,0,0.2,0.1,0.2
		l0,0c0.6,1.1,1.6,1.8,2.8,1.8c0.4,0,0.7-0.2,1.2-0.3c0.6-0.3,1.2-0.9,1.3-1.7s0.1-1.5-0.1-2.3l0,0c0-0.2-0.1-0.2-0.1-0.2
		c0-0.2-0.1-0.3-0.3-0.5c-0.3-0.6-0.6-1.1-1-1.5c-0.1-0.3-0.3-0.5-0.6-0.8v-0.3c-1-1.4-1.8-2.9-2.3-4.4c-0.1-0.5-0.1-1.1,0.1-1.5
		c0-0.2,0.1-0.2,0.1-0.2l0,0l-0.4-1.2c7.5-4.7,13.2-12,15.8-20.6l1.2,0.2l0,0c0.1,0,0.1-0.2,0.1-0.2c0.3-0.3,0.7-0.5,1.2-0.5h0.1
		c1.6,0.3,3.2,0.8,4.7,1.4h0.1c0.3,0.2,0.6,0.3,0.9,0.3c0.6,0.3,1,0.6,1.6,0.8c0.1,0,0.3,0.2,0.6,0.2c0.1,0,0.1,0,0.3,0.2l0,0
		c0.3,0.2,0.4,0.2,0.7,0.2c1.3,0,2.5-0.9,2.9-2.1C112.4,77.5,111.2,76.3,109.9,76L109.9,76z M67.6,71.3l-4,2l-4-2l-1-4.4l2.8-3.6
		h4.4l2.8,3.6L67.6,71.3z M91.5,61.5c0.7,3.2,0.9,6.4,0.6,9.5l-13.9-4.1l0,0c-1.3-0.3-2-1.7-1.8-3c0.1-0.5,0.3-0.8,0.6-1.1l11-10.3
		C89.6,55.3,90.7,58.3,91.5,61.5z M83.6,46.9l-12,8.8c-1,0.6-2.5,0.5-3.2-0.6c-0.3-0.3-0.4-0.6-0.4-1.1L67,38.8
		C73.5,39.5,79.2,42.4,83.6,46.9L83.6,46.9z M57.1,39.2l2.9-0.6l-0.7,15.1l0,0c0,1.4-1.2,2.4-2.5,2.4c-0.4,0-0.7-0.2-1.2-0.3
		l-12.1-8.9C47.3,43.2,52,40.4,57.1,39.2z M39.2,52.5l10.8,10l0,0c1,0.9,1.2,2.4,0.3,3.5c-0.3,0.5-0.6,0.6-1.2,0.8L35,71
		C34.5,64.7,36,58.1,39.2,52.5z M36.7,78.1l14.5-2.6c1.2,0,2.3,0.8,2.5,2c0.1,0.5,0.1,1.1-0.1,1.5l0,0L48,93
		C42.9,89.5,38.8,84.2,36.7,78.1z M70,96.9c-2,0.5-4.1,0.8-6.3,0.8c-3.1,0-6.3-0.6-9.2-1.5l7.2-13.5c0.7-0.9,1.9-1.2,2.9-0.6
		c0.4,0.3,0.7,0.6,1.2,1.1l0,0l7,13.2C71.9,96.5,71,96.6,70,96.9z M87.8,83.7c-2.2,3.6-5.3,6.8-8.8,9.1l-5.7-14.2
		c-0.3-1.2,0.3-2.4,1.3-2.9c0.4-0.2,0.9-0.3,1.3-0.3L90.6,78C89.9,80.1,89,82.1,87.8,83.7z"/>
</g>
</svg>
